# xmcd CD database file
#
# Track frame offsets:
#	150
#	15687
#	26065
#	46922
#	65605
#	83842
#	102727
#	124167
#	144785
#	158392
#
# Disc length: 2315 seconds
#
# Revision: 3
# Processed by: cddbd v1.4PL0 Copyright (c) Steve Scherf et al.
# Submitted via: CDex 1.40Release
#
DISCID=7b09090a
DTITLE=Henning Stærk - Dreams To Remember
DYEAR=1989
DGENRE=Pop-Folk
TTITLE0=Cheque Book
TTITLE1=Bound To Know
TTITLE2=Sweetheart
TTITLE3=Switchboard Susan
TTITLE4=Same Ole Story
TTITLE5=Out Of Time
TTITLE6=I've Got Dreams To Remember
TTITLE7=The Only One
TTITLE8=Mess Of Blues
TTITLE9=I Don't Mind
EXTD=YEAR: 1989 ID3G: 53
EXTT0=
EXTT1=
EXTT2=
EXTT3=
EXTT4=
EXTT5=
EXTT6=
EXTT7=
EXTT8=
EXTT9=
PLAYORDER=
